<?xml version="1.0" encoding="UTF-8" standalone="no"?>
<!DOCTYPE svg PUBLIC "-//W3C//DTD SVG 1.1//EN" "http://www.w3.org/Graphics/SVG/1.1/DTD/svg11.dtd">
<svg width="100%" height="100%" viewBox="0 0 127 294" version="1.1" xmlns="http://www.w3.org/2000/svg" xmlns:xlink="http://www.w3.org/1999/xlink" xml:space="preserve" xmlns:serif="http://www.serif.com/" style="fill-rule:evenodd;clip-rule:evenodd;stroke-linejoin:round;stroke-miterlimit:2;">
    <g transform="matrix(2.62841e-17,-0.429252,0.429252,2.62841e-17,-0.00479536,293.655)">
        <path d="M539.49,282.05C539.07,281.93 538.53,281.87 537.87,281.87C536.58,281.83 535.18,281.8 533.69,281.8C532.19,281.8 530.69,281.82 529.2,281.87C527.94,281.91 526.72,281.96 525.5,282.02C525.27,282.03 525.03,282.04 524.8,282.05C523.37,282.12 522.06,282.22 520.86,282.36C520.82,281.58 520.81,280.81 520.78,280.03C520.75,279.06 520.7,278.08 520.68,277.11C520.66,275.36 520.67,273.58 520.71,271.79C521.86,271.88 523.18,271.96 524.65,272.03C526.13,272.1 527.53,272.16 528.87,272.2C530.21,272.25 531.37,272.28 532.36,272.3C533.35,272.32 533.96,272.29 534.19,272.2C534.65,272.02 535.05,271.4 535.4,270.37C535.75,269.33 535.93,268.2 535.95,266.98C535.97,265.76 535.82,264.64 535.5,263.63C535.18,262.62 534.58,262.04 533.7,261.9L520.84,261.97L521.12,250.91C521.9,250.91 522.86,250.93 523.99,250.98C525.12,251.03 526.29,251.08 527.52,251.15C528.74,251.22 529.99,251.29 531.25,251.36C532.52,251.43 533.67,251.48 534.71,251.5C535.75,251.52 536.65,251.54 537.41,251.54C538.17,251.54 538.67,251.52 538.9,251.47C539.45,251.19 539.89,250.6 540.21,249.71C540.53,248.81 540.73,247.82 540.8,246.74C540.87,245.66 540.85,244.61 540.73,243.59C540.61,242.58 540.42,241.81 540.14,241.31C539.91,240.9 539.66,240.6 539.38,240.41C539.24,240.32 539.1,240.25 538.97,240.2L533.23,240.2C531.2,240.2 529.14,240.22 527.04,240.27C524.94,240.32 522.86,240.37 520.78,240.44C518.7,240.51 516.75,240.59 514.9,240.68C513.75,240.68 512.71,240.9 511.79,241.34C510.87,241.78 510.41,242.57 510.41,243.72C509.95,249.81 509.7,255.94 509.65,262.12C509.62,265.57 509.62,268.98 509.61,272.41C509.6,275.11 509.58,277.84 509.58,280.52C509.58,282.82 509.64,284.81 509.75,286.47C509.86,288.13 510.01,289.24 510.2,289.79C510.52,290.71 510.96,291.41 511.51,291.86C512.06,292.32 512.69,292.66 513.38,292.86C514.07,293.07 514.79,293.17 515.52,293.17C516.26,293.17 517,293.12 517.73,293.03C520.77,292.8 523.67,292.68 526.41,292.68C529.15,292.68 531.88,292.79 534.61,293.03C535.58,293.12 536.41,293.2 537.1,293.27C537.79,293.34 538.25,293.33 538.48,293.23C538.94,293.09 539.31,292.77 539.59,292.26C539.87,291.75 540.1,291.14 540.28,290.43C540.46,289.72 540.59,288.93 540.66,288.08C540.73,287.23 540.79,286.39 540.83,285.56C540.92,284.08 540.78,283.1 540.41,282.62C540.24,282.35 539.93,282.17 539.49,282.05Z" style="fill-rule:nonzero;"/>
        <path d="M583.19,266.24C583.03,264.9 582.89,263.56 582.68,262.24C582.4,260.26 582.01,258.29 581.5,256.33C580.99,254.37 580.31,252.52 579.46,250.76C578.61,249.01 577.56,247.4 576.31,245.92C575.07,244.44 573.57,243.2 571.81,242.19C569.55,240.95 567.15,240.32 564.62,240.32C562.08,240.32 559.76,240.99 557.64,242.32C555.84,243.47 554.3,244.9 553.01,246.61C551.72,248.32 550.6,250.18 549.66,252.21C548.71,254.24 547.93,256.38 547.31,258.64C546.69,260.9 546.18,263.16 545.79,265.42C545.4,267.68 545.1,269.88 544.89,272.02C544.68,274.16 544.53,276.13 544.44,277.93C544.39,278.71 544.35,279.45 544.32,280.19C544.25,281.5 544.2,282.77 544.17,283.95C544.12,285.8 544.1,287.43 544.1,288.86C544.15,290.06 544.43,290.93 544.96,291.49C545.49,292.04 546.15,292.41 546.93,292.6C547.71,292.83 548.52,292.92 549.35,292.88C550.18,292.83 550.92,292.79 551.56,292.74C552.25,292.69 552.79,292.28 553.18,291.5C553.57,290.72 553.88,289.84 554.11,288.87C554.34,287.9 554.49,286.93 554.56,285.97C554.63,285 554.69,284.31 554.73,283.9L558.64,283.9C560.18,283.9 561.79,283.91 563.45,283.93C565.11,283.95 566.73,284.01 568.32,284.1C569.91,284.19 571.28,284.31 572.43,284.45L572.43,285.14C572.48,287.21 572.73,288.8 573.19,289.91C573.65,291.02 574.23,291.8 574.92,292.26C575.66,292.77 576.45,293 577.31,292.95C578.16,292.9 578.98,292.84 579.76,292.74C580.59,292.51 581.24,292.26 581.7,291.98C582.16,291.7 582.52,291.33 582.77,290.87C583.02,290.41 583.2,289.81 583.29,289.07C583.38,288.33 583.47,287.39 583.57,286.24C583.8,282.18 583.87,278.15 583.78,274.14C583.72,271.47 583.5,268.85 583.19,266.24ZM572.38,273.09C569.48,273 566.58,273.01 563.7,273.12C560.82,273.24 557.93,273.41 555.02,273.64C555.06,273.21 555.11,272.8 555.16,272.38C555.48,269.52 555.94,266.91 556.54,264.58C557.23,261.91 558,259.66 558.86,257.84C559.71,256.02 560.63,254.64 561.63,253.69C562.62,252.74 563.58,252.27 564.5,252.27C565.56,252.27 566.6,252.74 567.61,253.69C568.62,254.64 569.5,256 570.24,257.77C570.98,259.54 571.55,261.72 571.97,264.31C572.03,264.67 572.07,265.05 572.11,265.42C572.4,267.72 572.49,270.27 572.38,273.09Z" style="fill-rule:nonzero;"/>
        <path d="M635.3,242.52C635.25,241.92 634.95,241.48 634.4,241.21C633.85,240.93 633.19,240.75 632.43,240.66C631.67,240.57 630.86,240.54 630.01,240.59C629.16,240.64 628.43,240.66 627.83,240.66C627.32,240.71 626.8,240.91 626.27,241.28C625.74,241.65 625.41,242.04 625.27,242.46C623.15,246.57 620.98,250.65 618.77,254.7C616.56,258.76 614.32,262.81 612.06,266.87C609.72,262.72 607.44,258.57 605.21,254.42C602.99,250.27 600.77,246.1 598.57,241.9C598.29,241.48 597.8,241.19 597.11,241C596.42,240.81 595.67,240.69 594.88,240.62C594.09,240.55 593.32,240.54 592.58,240.59C591.84,240.64 591.28,240.66 590.91,240.66C590.26,240.71 589.77,240.84 589.45,241.07C589.13,241.3 588.92,241.55 588.82,241.83C588.68,242.15 588.63,242.52 588.68,242.94C588.31,250.82 588.03,258.02 587.85,264.52C587.82,265.54 587.79,266.54 587.76,267.55C587.71,269.29 587.65,271.03 587.61,272.75C587.54,275.47 587.48,277.96 587.44,280.22C587.39,282.48 587.37,284.41 587.37,286C587.37,287.59 587.42,288.64 587.51,289.15C587.65,290.21 588,291.01 588.55,291.54C589.11,292.07 589.76,292.44 590.5,292.65C591.24,292.86 592.04,292.94 592.9,292.89C593.76,292.84 594.61,292.78 595.44,292.68C596.23,292.59 596.85,292.36 597.32,291.99C597.78,291.62 598.13,291.25 598.36,290.88C598.59,290.42 598.75,289.91 598.84,289.36L598.7,272.84L598.63,264.95C599.59,266.93 600.57,268.87 601.56,270.76C602.36,272.29 603.1,273.68 603.79,274.99C603.95,275.29 604.13,275.62 604.28,275.91C605.11,277.46 605.83,278.77 606.45,279.85C607.07,280.93 607.52,281.64 607.79,281.96C608.2,282.47 608.73,282.85 609.38,283.1C610.02,283.35 610.7,283.51 611.42,283.58C612.13,283.65 612.85,283.6 613.56,283.44C614.27,283.28 614.91,283.04 615.46,282.71C615.97,282.43 616.33,282.1 616.56,281.71C616.79,281.32 617.04,280.89 617.32,280.43C617.69,279.78 618.15,278.97 618.7,277.97C618.85,277.7 619.02,277.4 619.18,277.11C619.6,276.35 620.03,275.56 620.5,274.69C621.14,273.49 621.82,272.2 622.53,270.82C623.24,269.44 623.97,268.01 624.7,266.53C624.61,269.11 624.54,271.66 624.49,274.17C624.47,275.04 624.46,275.85 624.45,276.67C624.43,278.21 624.4,279.68 624.39,281.02C624.37,283.07 624.36,284.82 624.36,286.27C624.36,287.72 624.38,288.68 624.43,289.14C624.57,290.2 624.91,291 625.47,291.53C626.02,292.06 626.67,292.43 627.41,292.64C628.15,292.85 628.94,292.93 629.8,292.88C630.65,292.83 631.47,292.77 632.25,292.67C633.03,292.58 633.66,292.35 634.12,291.98C634.58,291.61 634.93,291.24 635.16,290.87C635.39,290.41 635.55,289.9 635.64,289.35L635.53,274.23L635.3,242.52Z" style="fill-rule:nonzero;"/>
        <path d="M412.19,250.06C413.5,250.01 414.91,250.53 416.41,251.62C417.91,252.7 419.23,254.63 420.39,257.39C420.85,258.5 421.52,259.21 422.4,259.53C423.05,259.67 423.84,259.57 424.79,259.22C425.73,258.87 426.61,258.37 427.42,257.7C428.23,257.03 428.88,256.25 429.39,255.35C429.9,254.45 430.06,253.47 429.87,252.41C429.5,250.71 428.77,249.14 427.69,247.71C426.61,246.28 425.29,245.05 423.75,244.01C422.2,242.97 420.5,242.14 418.63,241.52C416.76,240.9 414.84,240.54 412.86,240.45C410.55,240.31 408.21,240.6 405.84,241.32C403.46,242.03 401.4,243.11 399.65,244.53C397.9,245.96 396.64,247.74 395.88,249.86C395.12,251.98 395.18,254.42 396.05,257.19C396.79,259.26 397.88,261.02 399.33,262.45C400.01,263.12 400.72,263.75 401.47,264.35C402.32,265.04 403.2,265.71 404.14,266.32C405.89,267.47 407.69,268.58 409.53,269.64C411.37,270.7 413.06,271.88 414.58,273.17C415.41,273.91 416.07,274.68 416.55,275.49C417.03,276.3 417.3,277.09 417.34,277.88C417.39,278.71 417.11,279.55 416.51,280.41C415.91,281.26 414.94,281.87 413.61,282.24C412.6,282.52 411.58,282.49 410.57,282.17C409.6,281.89 408.73,281.41 407.94,280.72C407.16,280.03 406.49,279.24 405.93,278.37C405.38,277.49 404.93,276.56 404.58,275.57C404.23,274.58 404.04,273.62 403.99,272.7C403.99,272.61 403.97,272.46 403.92,272.25C403.87,272.04 403.78,271.84 403.64,271.63C403.5,271.42 403.28,271.26 402.98,271.15C402.68,271.03 402.3,271 401.84,271.05C401.38,271.14 400.79,271.34 400.08,271.64C399.36,271.94 398.64,272.36 397.9,272.92C397.16,273.47 396.49,274.12 395.89,274.86C395.29,275.6 394.88,276.43 394.65,277.35C394.56,277.9 394.53,278.47 394.58,279.05C394.63,279.63 394.69,280.22 394.79,280.81C395.2,282.7 395.92,284.37 396.93,285.82C397.94,287.27 399.18,288.49 400.63,289.48C402.08,290.47 403.67,291.24 405.4,291.8C407.13,292.35 408.89,292.68 410.69,292.77C413.23,292.91 415.69,292.67 418.09,292.05C420.49,291.43 422.65,290.33 424.59,288.76C425.88,287.61 426.93,286.27 427.74,284.75C428.55,283.23 429.08,281.66 429.33,280.05C429.58,278.44 429.56,276.81 429.26,275.17C428.96,273.53 428.37,272 427.5,270.57C426.53,269.05 425.33,267.76 423.9,266.7C422.47,265.64 420.95,264.68 419.34,263.83C418.41,263.34 417.47,262.85 416.54,262.36C415.85,262 415.16,261.63 414.47,261.27C412.83,260.42 411.32,259.41 409.94,258.26C409.29,257.75 408.78,257.21 408.38,256.64C407.99,256.06 407.77,255.52 407.72,255.01C407.63,253.67 408.02,252.53 408.9,251.59C409.78,250.6 410.87,250.11 412.19,250.06Z" style="fill-rule:nonzero;"/>
        <path d="M467.75,243.22C467.66,242.44 467.5,241.82 467.27,241.39C467.04,240.95 466.79,240.62 466.51,240.39C466.19,240.16 465.84,240.02 465.47,239.97L434.56,241C434.19,241 433.94,241.28 433.8,241.83C433.66,242.38 433.58,243.05 433.56,243.84C433.54,244.62 433.56,245.44 433.63,246.3C433.7,247.15 433.76,247.9 433.8,248.55C433.85,249.2 433.95,249.66 434.11,249.93C434.27,250.21 434.44,250.41 434.63,250.55C434.81,250.73 435.04,250.8 435.32,250.76C436.24,250.76 437.28,250.78 438.43,250.83C439.4,250.88 440.52,250.91 441.78,250.93C443.05,250.95 444.42,250.99 445.89,251.04C445.84,252.79 445.8,255.17 445.75,258.16C445.7,261.16 445.63,264.34 445.54,267.7C445.5,268.86 445.46,269.99 445.43,271.13C445.39,272.41 445.34,273.69 445.3,274.96C445.23,277.36 445.18,279.56 445.16,281.56C445.14,283.57 445.13,285.28 445.13,286.71C445.13,288.14 445.18,289.08 445.27,289.54C445.41,290.46 445.74,291.17 446.27,291.65C446.8,292.13 447.43,292.46 448.17,292.62C448.91,292.78 449.7,292.85 450.56,292.83C451.41,292.81 452.25,292.75 453.08,292.66C453.86,292.61 454.49,292.44 454.95,292.14C455.41,291.84 455.76,291.51 455.99,291.14C456.22,290.73 456.38,290.26 456.47,289.76C456.47,285.07 456.41,280.44 456.34,275.8C456.32,274.05 456.32,272.28 456.29,270.54C456.17,264.18 456,257.77 455.77,251.32C458.26,251.37 460.44,251.38 462.31,251.35C464.18,251.33 465.36,251.25 465.87,251.11C466.56,250.97 467.07,250.63 467.39,250.07C467.71,249.52 467.92,248.87 468.01,248.13C468.1,247.39 468.1,246.59 468.01,245.71C467.93,244.83 467.84,244 467.75,243.22Z" style="fill-rule:nonzero;"/>
        <path d="M502.39,248.4C501.01,246.69 499.38,245.28 497.51,244.15C495.64,243.02 493.63,242.18 491.46,241.62C489.29,241.07 487.17,240.75 485.1,240.65C483.26,240.6 481.48,240.6 479.78,240.65C478.95,240.56 478.09,240.52 477.19,240.54C476.29,240.56 475.52,240.62 474.87,240.71C474.22,240.76 473.74,240.89 473.42,241.12C473.1,241.35 472.89,241.6 472.8,241.88C472.66,242.2 472.62,242.57 472.66,242.99C472.57,245.06 472.5,247.28 472.45,249.63C472.36,251.66 472.3,253.94 472.28,256.48C472.26,259.02 472.2,261.67 472.11,264.43C472.02,267.2 471.91,269.94 471.8,272.66C471.77,273.3 471.75,273.88 471.73,274.49C471.65,276.49 471.58,278.38 471.53,280.1C471.46,282.34 471.43,284.25 471.43,285.84C471.43,287.43 471.48,288.48 471.57,288.99C471.71,290.05 472.03,290.86 472.54,291.41C473.05,291.96 473.67,292.35 474.41,292.55C475.15,292.76 475.94,292.86 476.8,292.86C477.65,292.86 478.47,292.81 479.25,292.72C480.03,292.67 480.67,292.47 481.15,292.1C481.63,291.73 481.99,291.36 482.22,290.99C482.5,290.53 482.66,290.02 482.7,289.47C482.7,288.04 482.71,286.63 482.73,285.22C482.75,283.81 482.76,282.42 482.76,281.04C482.9,281.18 482.97,281.27 482.97,281.32C485.04,283.86 487.2,286.18 489.44,288.3C491.68,290.42 494.18,291.99 496.94,293C497.45,293.18 497.87,293.31 498.22,293.38C498.57,293.45 498.81,293.51 498.95,293.55C499.69,293.73 500.4,293.67 501.09,293.34C501.78,293.02 502.39,292.53 502.92,291.89C503.45,291.24 503.89,290.51 504.23,289.68C504.58,288.85 504.77,288.03 504.82,287.22C504.87,286.41 504.75,285.69 504.47,285.04C504.19,284.4 503.71,283.93 503.02,283.66C502.19,283.43 501.24,283.04 500.18,282.48C499.12,281.93 498.06,281.29 497,280.58C495.94,279.87 494.91,279.06 493.92,278.16C492.93,277.26 492.06,276.35 491.33,275.43C493.36,274.55 495.32,273.44 497.21,272.08C498.77,270.96 500.09,269.66 501.28,268.25C501.53,267.95 501.82,267.68 502.05,267.37C503.39,265.59 504.37,263.62 504.99,261.46C505.61,259.29 505.67,256.96 505.16,254.47C504.7,252.14 503.78,250.11 502.39,248.4ZM492.68,262.99C491.89,264.08 490.78,265.04 489.39,265.86C489.2,265.97 489.02,266.09 488.81,266.2C487.13,267.1 485.13,267.62 482.83,267.75C482.82,267.31 482.82,266.86 482.81,266.42C482.77,264.24 482.74,262.05 482.72,259.87C482.7,257.24 482.66,254.62 482.62,251.99C485.39,251.76 487.63,251.97 489.36,252.61C491.09,253.26 492.34,254.14 493.13,255.27C493.91,256.4 494.26,257.66 494.17,259.04C494.07,260.43 493.58,261.75 492.68,262.99Z" style="fill-rule:nonzero;"/>
        <g>
            <path d="M479.43,119.42C476.8,117.36 473.88,116.47 470.68,116.75C467.48,117.04 464.31,118.35 461.18,120.7C458.05,123.05 455.63,126.22 453.92,130.2C464.02,130.2 474.2,129.99 484.45,129.56C483.74,124.87 482.07,121.49 479.43,119.42Z" style="fill-rule:nonzero;"/>
            <path d="M683.18,53.17C680.88,48.27 675.04,46.15 670.14,48.45C666.41,50.2 664.3,54 664.52,57.88L631.94,73.15C631.85,72.98 631.77,72.81 631.68,72.65C628.72,67.26 624.72,62.44 619.8,58.31C617.04,55.93 614.09,53.89 610.99,52.15L626.24,19.6C630.12,19.82 633.92,17.71 635.67,13.98C637.97,9.08 635.86,3.24 630.95,0.94C626.05,-1.36 620.21,0.76 617.91,5.66C616.16,9.39 616.97,13.66 619.62,16.5L604.38,49.03C602.62,48.35 600.81,47.75 598.97,47.26C593.49,45.8 587.85,45.06 582.21,45.06C580.53,45.06 578.82,45.13 577.13,45.26C569.88,45.82 562.78,47.51 556.01,50.29C549.12,53.12 542.91,56.98 537.56,61.75C532.78,65.98 528.54,70.91 524.98,76.4C521.4,81.9 518.61,87.82 516.67,94.01C516.52,94.5 516.38,95 516.23,95.49C513.95,92.94 511.48,90.59 508.78,88.49C500.88,82.35 491.52,78.31 480.95,76.5C477.32,75.88 473.58,75.56 469.84,75.56C462.94,75.56 455.8,76.63 448.64,78.75L448.4,78.83C439.86,81.49 432.36,85.56 426.12,90.93C420.42,95.82 415.45,101.47 411.35,107.72L411.2,107.95L411.06,108.18C410.75,108.69 410.47,109.21 410.18,109.72C406.54,99.29 400.98,90.88 393.58,84.64C384.69,77.15 374.61,72.79 363.6,71.67C361.64,71.47 359.66,71.37 357.7,71.37C349.1,71.37 340.44,73.29 331.95,77.07C326.91,79.32 322.19,82.18 317.82,85.63C315.64,84.15 313.4,82.85 311.09,81.74C303.66,78.18 295.88,76.38 287.95,76.38C281.33,76.38 274.71,77.57 268.24,79.91C265.85,77.09 262.6,74.9 258.69,73.6C255.57,72.56 252.17,71.95 248.27,71.72C246.31,71.61 244.31,71.55 242.29,71.55C241.3,71.55 240.29,71.56 239.28,71.59C236.32,71.67 233.87,71.79 231.76,71.95C228.77,72.17 226.15,72.68 223.81,73.49C222.13,69.17 219.38,65.28 215.62,61.96C209.53,56.59 201.96,53.76 193.7,53.76C185.52,53.76 178.03,56.53 172,61.77L171.96,55.84L171.96,55.24L171.91,54.65C171.31,46.98 167,40.6 160.07,37.14C156.7,35.45 152.84,34.33 148.61,33.81C146.37,33.54 144.06,33.4 141.71,33.4C140.58,33.4 139.42,33.43 138.26,33.49C135.92,33.62 133.89,33.68 132.2,33.68L131.61,33.68L131.02,33.72C125.98,34.08 121.86,35.41 118.44,37.79C115.36,39.92 112.94,42.61 111.27,45.8C109.37,49.29 108.48,53.22 108.66,57.27C108.36,65.88 108.07,74.2 107.81,82.22C106.19,80.63 104.45,79.14 102.59,77.77C97.32,73.89 91.27,70.9 84.59,68.87C78.14,66.91 71.39,65.92 64.53,65.92C61.14,65.92 57.41,66.13 53.44,66.54C48.97,67.01 44.44,67.94 39.96,69.31C35.4,70.7 30.89,72.63 26.56,75.02C21.88,77.61 17.59,80.84 13.81,84.62L13.7,84.73L13.59,84.85C8.2,90.46 4.33,97.14 2.09,104.73C-0.12,112.21 -0.59,119.78 0.69,127.25L0.71,127.39C2.21,135.63 5.53,142.69 10.6,148.42C10.46,148.6 10.32,148.78 10.18,148.97C6.36,153.32 3.69,158.31 2.25,163.84C0.92,168.92 0.48,174.13 0.92,179.33C1.36,184.57 2.76,189.75 5.07,194.71C7.38,199.65 10.53,204.14 14.44,208.04C19.63,213.24 25.54,217.53 31.99,220.8C38.45,224.07 45.27,226.27 52.27,227.31C55.3,227.76 58.38,227.99 61.44,227.99C65.57,227.99 69.79,227.58 73.97,226.76C81.42,225.31 88.59,222.44 95.28,218.24L95.42,218.14C99.79,215.33 103.81,211.99 107.42,208.21C108.78,211.8 110.77,214.92 113.38,217.53C117.14,221.3 121.7,223.87 126.91,225.17C130.04,225.95 133.36,226.34 136.8,226.34C137.6,226.34 138.42,226.32 139.23,226.28C142.28,226.12 145.22,225.87 147.98,225.55C153.47,224.9 158.15,223.07 161.92,220.1C162.57,219.59 163.18,219.06 163.77,218.52C164.97,219.66 166.28,220.69 167.72,221.56C171.32,223.75 175.48,225.16 180.08,225.74C182.6,226.05 185.25,226.21 187.97,226.21C188.62,226.21 189.27,226.2 189.94,226.18C193.09,226.09 196.12,225.88 199,225.54C203.95,224.95 208.04,223.6 211.52,221.41C213.06,220.44 214.42,219.42 215.64,218.35C216.35,218.99 217.09,219.61 217.89,220.18C221.51,222.75 225.71,224.51 230.34,225.37C233.28,225.92 236.41,226.2 239.64,226.2C240.14,226.2 240.66,226.19 241.17,226.18C244.28,226.09 247.36,225.88 250.34,225.55L250.46,225.53C255.54,224.93 259.71,223.5 263.21,221.17C266.16,219.21 268.59,216.89 270.46,214.27L270.77,213.84L271.05,213.39C272.74,210.68 273.94,207.74 274.63,204.65L275.06,202.71L275.02,200.72L274.96,198.01C276.37,204.18 278.92,209.51 282.56,213.91C286.64,218.86 294.29,224.79 307.42,224.79C309.8,224.79 312.3,224.61 314.87,224.27C315.36,224.22 315.85,224.15 316.37,224.06C319.47,223.58 322.46,222.72 325.27,221.53C340.96,215.07 343.1,201.39 343.38,197.04C343.38,197.04 344.05,209.17 355.71,218.72C358.2,220.95 361.02,222.74 364.15,224.05C364.83,224.38 365.46,224.61 366.04,224.77C369.58,226.01 373.36,226.71 377.31,226.82C380.17,226.9 382.93,226.93 385.57,226.93L385.88,226.93L386.19,226.92C392.76,226.68 398.52,225.13 403.31,222.32C408.42,219.31 414.67,213.04 415.48,200.17C415.49,199.95 415.5,199.72 415.52,199.5C416.44,200.74 417.4,201.97 418.39,203.17C426.4,212.8 436.62,219.61 448.77,223.41L449.03,223.49L449.3,223.56C454.58,225.02 460.09,225.89 465.69,226.16C466.84,226.21 467.99,226.24 469.12,226.24C473.61,226.24 478.1,225.8 482.49,224.95C487.21,224.14 492.12,222.59 497.09,220.34C502.09,218.08 506.73,215.25 510.91,211.93C513.17,210.13 515.25,208.18 517.15,206.1C517.56,207.65 518.04,209.16 518.6,210.58C522.94,221.69 531.13,224.86 535.63,225.76L535.95,225.82L536.28,225.87C539.86,226.44 543.88,226.71 548.57,226.71C552.72,226.71 556.25,226.56 559.32,226.24C561.92,226.12 564.94,226.07 568.31,226.07C571.96,226.07 575.79,226.14 579.7,226.27C583.6,226.4 587.54,226.58 591.43,226.79C595.21,227 598.74,227.24 601.95,227.5C605.31,227.79 608.29,228.02 610.76,228.17C611.9,228.24 612.89,228.27 613.83,228.27C615.54,228.27 617.95,228.17 620.53,227.46C626.6,226 631.57,222.05 634.59,216.25C636.2,213.17 637.39,209.57 638.12,205.59C638.66,202.6 639.04,199.31 639.22,195.83C639.38,192.69 639.45,189.72 639.45,186.97C639.45,186.08 639.41,184.91 639.32,183.29C639.17,180.73 638.74,178.24 638.04,175.84L638.02,175.78C637.26,173.21 636.21,170.81 634.89,168.66L634.83,168.56C631.35,162.95 625.44,159.55 618.95,159.39C617.85,159.35 616.74,159.3 615.64,159.27C619.97,154.19 623.93,148.78 627.43,143.18C631.53,136.62 634.61,129.28 636.59,121.37L636.65,121.11C637.87,115.89 638.61,110.6 638.87,105.38C639.16,99.74 638.72,94.11 637.58,88.68C636.94,85.63 636.05,82.65 634.94,79.76L667.58,64.46C670.42,67.11 674.69,67.92 678.42,66.17C683.36,63.91 685.48,58.07 683.18,53.17ZM104.36,183.04C102.72,187.38 100.34,191.37 97.21,194.99C94.08,198.62 90.52,201.71 86.53,204.28C81.55,207.41 76.32,209.51 70.84,210.58C65.36,211.65 59.99,211.79 54.72,211.01C49.45,210.22 44.37,208.59 39.46,206.1C34.55,203.61 30.1,200.37 26.12,196.39C23.56,193.83 21.53,190.95 20.03,187.75C18.54,184.55 17.65,181.27 17.36,177.93C17.07,174.59 17.36,171.28 18.22,168C19.07,164.73 20.71,161.81 23.13,159.25C23.56,158.54 24.12,157.97 24.84,157.54C25.47,157 26.11,156.58 26.76,156.26C27.49,155.89 28.23,155.66 28.98,155.56C29.69,155.47 30.41,155.48 31.14,155.62C33.34,156.05 34.94,157.83 35.94,160.96C38.07,166.94 41.31,171.85 45.65,175.69C49.99,179.53 55.22,181.6 61.34,181.88C63.33,182.03 65.25,181.77 67.1,181.13C68.95,180.49 70.52,179.57 71.8,178.36C73.08,177.15 73.97,175.62 74.47,173.77C74.97,171.92 74.79,169.79 73.94,167.37C73.09,164.81 71.2,162.6 68.28,160.75C65.36,158.9 62.12,157.3 58.57,155.95C55.01,154.6 51.45,153.35 47.9,152.21C46.84,151.87 45.85,151.54 44.92,151.21C42.72,150.44 40.86,149.7 39.36,149C36.98,147.87 34.74,146.61 32.6,145.25C29.87,143.52 27.3,141.61 24.95,139.5C20.75,135.73 18.08,130.71 16.95,124.45C16.09,119.47 16.42,114.45 17.91,109.4C18.9,106.05 20.36,103 22.26,100.24C23.22,98.84 24.29,97.51 25.49,96.27C28.19,93.57 31.22,91.29 34.56,89.44C37.9,87.59 41.32,86.13 44.81,85.06C48.3,83.99 51.75,83.28 55.16,82.92C58.57,82.57 61.7,82.39 64.55,82.39C69.82,82.39 74.9,83.14 79.81,84.63C84.72,86.12 89.06,88.26 92.83,91.03C96.05,93.4 98.67,96.25 100.75,99.51C101.1,100.06 101.47,100.6 101.79,101.17C103.99,105.16 105.02,109.71 104.89,114.83C104.89,116.83 104.32,118.64 103.18,120.27C102.04,121.91 100.54,123.33 98.7,124.54C96.85,125.75 94.78,126.64 92.51,127.21C90.23,127.78 87.81,128.06 85.25,128.06C83.68,128.06 82.4,127.71 81.41,126.99C80.42,126.28 79.92,124.93 79.92,122.93C79.92,119.37 79.03,116.49 77.25,114.28C75.47,112.08 73.33,110.44 70.85,109.37C68.36,108.3 65.73,107.73 62.95,107.66C60.18,107.59 57.86,107.91 56.01,108.62C53.59,109.47 52.03,110.54 51.31,111.82C50.6,113.1 50.46,114.42 50.88,115.77C51.31,117.12 52.09,118.4 53.23,119.61C54.37,120.82 55.65,121.78 57.07,122.49C58.78,123.34 60.7,124.23 62.83,125.16C64.96,126.09 67.02,126.9 69.02,127.62C71.01,128.33 72.79,129.01 74.36,129.65C75.92,130.29 77.13,130.82 77.99,131.25C80.25,132.27 82.37,133.42 84.42,134.65C87.53,136.52 90.42,138.6 93.04,140.96C94.43,142.21 95.7,143.53 96.89,144.9C99.43,147.83 101.53,151.03 103.18,154.51C105.46,159.49 106.63,164.4 106.7,169.24C106.78,174.11 106,178.7 104.36,183.04ZM154.85,203.85C154.14,204.99 153.1,206.09 151.75,207.16C150.4,208.23 148.51,208.9 146.09,209.19C143.67,209.47 141.11,209.69 138.4,209.83C135.7,209.97 133.2,209.76 130.93,209.19C128.65,208.62 126.69,207.52 125.06,205.88C123.43,204.25 122.39,201.86 121.97,198.73C121.68,197.16 121.54,193.93 121.54,189.02C121.54,184.11 121.61,178.2 121.75,171.3C121.89,164.4 122.07,156.78 122.28,148.46C122.29,147.92 122.31,147.37 122.33,146.83C122.43,143.02 122.53,139.2 122.65,135.34C122.77,131.3 122.9,127.24 123.03,123.16C123.23,116.29 123.44,109.12 123.68,101.7C123.93,93.7 124.2,85.38 124.49,76.75C124.71,70.33 124.93,63.75 125.17,56.98C125.03,55.7 125.24,54.56 125.81,53.56C126.23,52.71 126.91,51.96 127.84,51.32C128.76,50.68 130.22,50.29 132.21,50.15C134.2,50.15 136.51,50.08 139.15,49.94C141.78,49.8 144.27,49.87 146.62,50.15C148.97,50.44 151,51 152.7,51.86C154.41,52.71 155.33,54.07 155.48,55.92L155.6,76.76L155.78,106.47L156,141.8L156.08,155.85L156.34,199.16C156.05,200.86 155.56,202.43 154.85,203.85ZM205.87,204.92C205.16,205.77 204.13,206.63 202.77,207.48C201.42,208.33 199.53,208.9 197.11,209.19C194.69,209.47 192.16,209.65 189.53,209.72C186.9,209.79 184.44,209.68 182.17,209.4C179.89,209.11 177.93,208.47 176.3,207.48C174.66,206.49 173.63,204.99 173.2,203C172.91,202.01 172.74,199.94 172.67,196.81C172.6,193.68 172.6,189.91 172.67,185.5C172.74,181.09 172.89,176.21 173.1,170.88C173.19,168.54 173.32,166.19 173.45,163.83C173.62,160.82 173.82,157.8 174.06,154.76C174.18,152.43 174.32,150.13 174.45,147.85C174.63,144.84 174.82,141.87 175.02,138.96C175.37,133.84 175.69,129.28 175.98,125.3C176.41,120.6 176.84,116.26 177.26,112.28C177.17,111.72 177.24,111.23 177.45,110.79C177.56,110.56 177.7,110.34 177.9,110.14C178.33,109.57 179,109.11 179.93,108.75C180.85,108.4 182.31,108.22 184.3,108.22L191.13,108.22C193.69,108.22 196.15,108.33 198.49,108.54C200.84,108.75 202.87,109.15 204.58,109.71C206.29,110.28 207.14,111.13 207.14,112.27C207.1,114.2 207.09,116.12 207.06,118.05C206.84,131.18 206.71,144.24 206.71,157.21C206.71,159.08 206.74,160.96 206.75,162.84C206.76,166.76 206.79,170.69 206.83,174.62C206.92,183.71 207.08,192.82 207.35,201.94C207.08,202.93 206.58,203.93 205.87,204.92ZM204.69,93.59C201.63,96.23 197.96,97.54 193.7,97.54C189.43,97.54 185.76,96.23 182.71,93.59C179.65,90.96 178.12,87.79 178.12,84.09C178.12,81.35 178.91,78.91 180.46,76.75C181.09,75.88 181.83,75.05 182.71,74.27C185.77,71.57 189.43,70.21 193.7,70.21C197.97,70.21 201.63,71.56 204.69,74.27C205.57,75.05 206.31,75.88 206.93,76.75C208.48,78.91 209.28,81.35 209.28,84.09C209.28,87.8 207.75,90.96 204.69,93.59ZM400.55,159.04C400.48,165.36 400.33,171.66 400.11,177.94C399.98,181.56 399.83,185.17 399.65,188.78C399.48,192.25 399.29,195.71 399.07,199.16C398.78,203.72 397.43,206.71 395.01,208.13C392.59,209.55 389.46,210.33 385.62,210.48C383.06,210.48 380.46,210.44 377.83,210.37C375.2,210.3 372.78,209.8 370.57,208.88C368.36,207.96 366.51,206.53 365.02,204.61C363.53,202.69 362.71,199.95 362.57,196.39C362.49,194.96 362.44,193.52 362.41,192.09C362.34,188.69 362.43,185.28 362.68,181.88C362.86,179.38 363.06,176.88 363.26,174.36C363.45,172 363.65,169.63 363.86,167.26C364.14,164 364.34,160.71 364.5,157.42C364.58,155.76 364.67,154.1 364.72,152.43C364.86,147.45 364.51,142.4 363.65,137.27C362.37,129.16 359.92,123.65 356.29,120.73C352.66,117.81 348.78,117.28 344.66,119.13C340.53,120.98 336.69,125.18 333.13,131.73C330.2,137.12 328.16,143.97 326.96,152.24C326.7,154.02 326.47,155.85 326.3,157.76L326.3,157.77C325.73,163.75 325.37,169.83 325.23,176.02C325.08,182.21 325.23,188.51 325.66,194.91C325.78,195.69 325.82,196.42 325.83,197.11C325.84,198.95 325.47,200.5 324.7,201.74C323.63,203.45 322.14,204.8 320.22,205.79C318.3,206.79 316.2,207.47 313.92,207.82C311.64,208.18 309.51,208.35 307.52,208.35C302.11,208.35 298.05,206.72 295.35,203.44C293.46,201.15 292.1,198.3 291.25,194.9C290.89,193.43 290.6,191.88 290.43,190.21C290,185.23 290.07,180.14 290.64,174.95C291.21,169.76 291.63,164.6 291.92,159.47C292.17,157.06 292.28,154.77 292.28,152.58C292.28,149.62 292.07,146.86 291.64,144.29C291.47,143.28 291.3,142.27 291.07,141.32C289.79,136.2 287.97,132.28 285.63,129.58C283.28,126.88 280.61,125.49 277.62,125.42C274.63,125.35 271.78,126.88 269.08,130.01C267.65,131.67 266.31,133.82 265.05,136.44C263.94,138.76 262.89,141.45 261.92,144.53C260.4,149.36 259.28,155.27 258.58,162.26C258.33,164.75 258.12,167.37 257.97,170.14L258.32,186.84L258.61,201.09C258.32,202.37 257.82,203.58 257.12,204.72C256.41,205.72 255.41,206.64 254.13,207.5C252.85,208.35 251,208.92 248.58,209.21C246.02,209.49 243.42,209.67 240.79,209.74C238.15,209.81 235.7,209.63 233.43,209.21C231.15,208.78 229.16,207.97 227.45,206.75C225.74,205.54 224.67,203.73 224.25,201.31C224.11,200.46 224.03,197.33 224.03,191.92C224.03,187.38 224.06,182.04 224.11,175.94C224.12,174.79 224.13,173.62 224.14,172.42L224.14,172.39C224.21,164.78 224.32,156.56 224.46,147.73C224.6,139 224.78,130.83 224.99,123.22C224.99,123.14 224.99,123.05 225,122.97C225.21,115.28 225.42,108.74 225.64,103.33C225.85,97.92 226.03,94.72 226.17,93.72C225.88,92.73 226.03,91.87 226.59,91.16C226.87,90.45 227.51,89.85 228.51,89.35C229.5,88.85 231,88.53 232.99,88.39C234.84,88.25 237.08,88.14 239.72,88.07C242.35,88 244.88,88.04 247.3,88.18C249.72,88.32 251.78,88.68 253.49,89.25C255.2,89.82 256.12,90.74 256.26,92.02L256.48,105.9C261.18,101.77 266.23,98.57 271.64,96.29C277.05,94.02 282.49,92.88 287.97,92.88C293.45,92.88 298.78,94.13 303.98,96.61C309.17,99.1 313.98,103.05 318.39,108.46C324.08,101.06 330.84,95.62 338.67,92.13C346.49,88.64 354.25,87.29 361.94,88.07C369.63,88.85 376.63,91.91 382.97,97.25C389.3,102.59 393.75,110.45 396.31,120.84C399.3,132.51 400.72,145.14 400.58,158.73C400.55,158.81 400.55,158.93 400.55,159.04ZM515.19,144.93C514.9,146.78 514.4,148.35 513.69,149.63C512.98,150.91 511.84,151.69 510.28,151.98C509.57,152.27 508.07,152.48 505.8,152.62C503.52,152.76 500.78,152.83 497.58,152.83C494.38,152.83 490.85,152.8 487.01,152.72C483.17,152.65 479.32,152.54 475.48,152.4C473.37,152.29 471.34,152.19 469.34,152.1C466.35,151.96 463.48,151.85 460.75,151.76C457.79,151.67 455.23,151.54 452.99,151.39C451.85,151.82 450.72,152.26 449.62,152.69C449.62,153.63 449.64,154.57 449.69,155.51C449.8,157.44 450.03,159.35 450.39,161.23C451.03,164.53 452.13,167.5 453.7,170.16C455.11,172.55 456.94,174.54 459.16,176.17C459.4,176.35 459.63,176.55 459.89,176.72C462.45,178.44 465.65,179.45 469.5,179.73C472.49,180.02 475.48,179.44 478.47,178.01C481.46,176.58 484.16,174.14 486.58,170.7C488.43,167.83 490.78,166.11 493.62,165.54C496.47,164.97 499.24,165.22 501.95,166.29C504.65,167.37 506.93,169.12 508.78,171.56C510.63,174 511.55,176.79 511.55,179.95C511.55,183.79 510.52,187.32 508.45,190.52C506.38,193.72 503.79,196.57 500.66,199.06C497.53,201.55 494.08,203.65 490.31,205.36C486.54,207.07 482.95,208.21 479.53,208.78C475.26,209.63 470.92,209.95 466.51,209.74C462.1,209.53 457.83,208.85 453.7,207.71C444.59,204.87 437.05,199.85 431.07,192.66C429.84,191.18 428.7,189.65 427.62,188.1C423.46,182.12 420.4,175.61 418.47,168.56C418.31,167.98 418.17,167.4 418.03,166.82C417.38,164.15 416.89,161.43 416.57,158.67C415.95,153.35 415.94,147.86 416.55,142.2C417.54,132.94 420.39,124.47 425.09,116.78C428.36,111.8 432.28,107.35 436.83,103.44C441.38,99.53 446.86,96.58 453.27,94.58C461.95,92.02 470.24,91.41 478.14,92.77C486.04,94.12 492.87,97.04 498.63,101.52C504.39,106 508.84,111.98 511.97,119.45C513.88,124.02 515,128.98 515.37,134.32C515.48,135.86 515.53,137.43 515.51,139.04C515.5,140.94 515.4,142.91 515.19,144.93ZM622.46,104.59C622.25,108.86 621.64,113.13 620.64,117.4C619.07,123.66 616.69,129.35 613.49,134.48C611.06,138.37 608.4,142.11 605.52,145.71C604.6,146.85 603.67,147.99 602.71,149.1C598.72,153.73 594.49,158.21 590.01,162.55C589.08,163.45 588.17,164.38 587.24,165.3C583.73,168.77 580.26,172.29 576.88,175.9C590.68,175.33 604.56,175.33 618.51,175.9C619.5,175.9 620.29,176.36 620.86,177.29C621.43,178.22 621.89,179.29 622.25,180.49C622.6,181.7 622.82,182.95 622.89,184.23C622.96,185.51 623,186.44 623,187C623,189.56 622.93,192.23 622.79,195.01C622.65,197.79 622.36,200.35 621.93,202.7C621.5,205.05 620.86,207.04 620.01,208.68C619.16,210.32 617.95,211.28 616.38,211.56C615.67,211.84 614.14,211.91 611.79,211.77C609.44,211.63 606.63,211.41 603.36,211.13C599.94,210.84 596.28,210.6 592.37,210.38C588.45,210.17 584.43,209.99 580.31,209.85C576.18,209.71 572.2,209.64 568.35,209.64C564.51,209.64 561.09,209.71 558.11,209.85C555.55,210.13 552.38,210.28 548.61,210.28C544.84,210.28 541.6,210.07 538.9,209.64C536.77,209.21 535.13,207.54 533.99,204.62C532.85,201.7 532.17,198.25 531.96,194.27C531.75,190.29 532.07,186.12 532.92,181.78C533.77,177.44 535.05,173.63 536.76,170.36C539.46,165.66 542.52,161.43 545.94,157.66C547.26,156.21 548.62,154.79 549.98,153.38C552.14,151.13 554.34,148.92 556.62,146.78C560.32,143.29 564.09,139.77 567.94,136.21C568.85,135.37 569.75,134.51 570.66,133.63C573.57,130.81 576.43,127.83 579.26,124.68C580.82,122.97 582.6,120.48 584.6,117.21C586.59,113.94 588.09,110.67 589.08,107.39C590.16,103.8 590.27,100.93 589.43,98.75C589.27,98.33 589.09,97.94 588.86,97.57C587.44,95.3 585.41,93.91 582.78,93.41C580.14,92.91 577.26,93.27 574.13,94.48C571,95.69 568.3,97.65 566.02,100.35C564.02,102.91 562.57,105.9 561.64,109.32C560.91,112.01 560.88,114.76 561.52,117.54C561.69,118.28 561.9,119.03 562.17,119.78C562.45,120.49 562.77,121.31 563.13,122.24C563.48,123.17 563.74,124.05 563.88,124.91C564.02,126.91 562.71,128.93 559.93,130.99C559.37,131.41 558.77,131.79 558.17,132.16C555.81,133.62 553.17,134.74 550.22,135.47C546.52,136.4 542.89,136.47 539.34,135.68C537,135.17 535.15,133.98 533.73,132.2C533.62,132.07 533.5,131.96 533.4,131.82C532.8,130.99 532.28,130.04 531.86,128.96C530.29,123.84 529.62,118.75 529.83,113.7C530.04,108.65 530.9,103.74 532.39,98.97C533.88,94.2 536.02,89.68 538.79,85.41C540.83,82.26 543.13,79.39 545.68,76.79C546.59,75.86 547.53,74.96 548.5,74.1C552.48,70.54 557.07,67.7 562.27,65.56C567.46,63.43 572.84,62.15 578.39,61.72C583.94,61.29 589.38,61.79 594.72,63.21C600.06,64.63 604.86,67.2 609.13,70.9C611.29,72.7 613.15,74.67 614.73,76.79C615.28,77.53 615.81,78.29 616.29,79.07C616.61,79.58 616.95,80.08 617.24,80.61C619.23,84.24 620.65,88.08 621.51,92.14C622.35,96.15 622.68,100.32 622.46,104.59Z" style="fill-rule:nonzero;"/>
        </g>
    </g>
</svg>
