<?xml version="1.0" encoding="utf-8"?>
<!-- Generator: Adobe Illustrator 28.0.0, SVG Export Plug-In . SVG Version: 6.00 Build 0)  -->
<svg version="1.1" id="Layer_1" xmlns="http://www.w3.org/2000/svg" xmlns:xlink="http://www.w3.org/1999/xlink" x="0px" y="0px"
	 viewBox="0 0 392.68 432.18" style="enable-background:new 0 0 392.68 432.18;" xml:space="preserve">
<g>
	<path d="M159.59,143.63c-111.04,0-125.38,11.52-125.38,99.29c0,87.78,14.34,93.36,125.38,93.36c111.04,0,118.7-5.59,118.7-93.36
		C278.29,155.15,270.63,143.63,159.59,143.63z M265.08,206.64c0.05,0.53,0.09,1.08,0.13,1.61c0.03,0.42,0.07,0.85,0.1,1.28
		c0.12,1.54,0.22,3.11,0.31,4.73c0,0,0,0.01,0,0.01h0c0.45,8.28,0.58,17.65,0.58,28.26c0,0.11,0,0.21,0,0.31c0,0,0,0,0,0
		c0,1.58,0,3.11-0.01,4.63c0,0.26,0,0.51,0,0.76c-0.01,1.49-0.02,2.96-0.03,4.39c0,0.02,0,0.05,0,0.07l0,0
		c-0.65,60.46-8.72,71.88-73.43,73.84c0,0,0,0,0,0c-0.21,0.01-0.44,0.01-0.66,0.02c-1.21,0.04-2.42,0.07-3.67,0.1
		c-0.02,0-0.04,0-0.05,0c-1.4,0.03-2.82,0.06-4.27,0.08c-0.07,0-0.13,0-0.2,0c0,0,0,0,0,0c-7.47,0.13-15.61,0.17-24.5,0.17
		c-2.41,0-4.75,0-7.06-0.01c-0.01,0-0.02,0-0.03,0c-1.29,0-2.57-0.01-3.83-0.02c0,0,0,0,0,0c-13.97-0.07-26.08-0.32-36.53-0.96
		c0,0-0.01,0-0.01,0.01c-1.3-0.08-2.56-0.17-3.81-0.26c-0.3-0.02-0.59-0.05-0.88-0.07c-0.97-0.08-1.93-0.16-2.87-0.24
		c-0.29-0.03-0.58-0.05-0.87-0.08c-1.06-0.1-2.1-0.2-3.12-0.31c-0.11-0.01-0.23-0.02-0.34-0.04c-1.2-0.13-2.38-0.27-3.53-0.42
		c0,0,0,0,0,0c-17-2.21-28.36-6.41-35.89-14.25l0,0c-0.44-0.46-0.86-0.92-1.28-1.41c0,0,0,0,0,0c-0.4-0.46-0.78-0.94-1.16-1.42
		c-0.02-0.03-0.04-0.05-0.06-0.08c-0.35-0.46-0.69-0.93-1.02-1.41c-0.04-0.05-0.07-0.1-0.11-0.16c-0.36-0.52-0.7-1.06-1.04-1.61
		c0.01,0,0.02-0.01,0.03-0.01c-3.78-6.22-6.14-14.12-7.55-24.17c0,0,0,0,0-0.01c-0.16-1.14-0.31-2.32-0.44-3.52
		c-0.01-0.13-0.03-0.26-0.04-0.38c-0.13-1.18-0.25-2.38-0.36-3.62c0,0,0,0,0,0c-0.76-8.57-1.03-18.46-1.03-29.92
		c0-1.15,0-2.29,0.01-3.41c0,0,0,0,0-0.01c0.01-1.46,0.02-2.9,0.04-4.31c0-0.26,0.01-0.52,0.01-0.78c0.02-1.1,0.03-2.19,0.06-3.26
		c0.01-0.37,0.02-0.75,0.03-1.12c0.02-1.01,0.05-2,0.08-2.99c0.01-0.32,0.02-0.64,0.03-0.95c0.04-1.29,0.09-2.55,0.15-3.8
		c0-0.01,0.01-0.02,0.01-0.03c2.3-49.7,15.61-64.37,70.38-68.02v0c0.01,0,0.01,0,0.02,0c1.25-0.08,2.53-0.16,3.82-0.23
		c0.04,0,0.08,0,0.12-0.01c1.31-0.07,2.63-0.14,3.98-0.2c0.01,0,0.03,0,0.04,0c8.36-0.38,17.6-0.56,27.78-0.61v0
		c0.01,0,0.02,0,0.03,0c2.02-0.01,4.06-0.02,6.16-0.02c0.03,0,0.06,0,0.09,0c0.78,0,1.55,0,2.32,0v0c21.88,0.04,39.2,0.61,52.9,2.36
		h0c0,0,0,0,0,0c2.46,0.31,4.8,0.67,7.02,1.06c0.1,0.02,0.21,0.04,0.31,0.06c0.96,0.17,1.89,0.35,2.81,0.54
		c0.17,0.04,0.35,0.07,0.52,0.11c1,0.21,1.97,0.42,2.92,0.65l0,0c12.97,3.12,21.55,8.14,27.22,16.04l0,0c0.7,0.98,1.36,2,1.97,3.07
		c0,0,0,0.01,0,0.01c0.61,1.07,1.19,2.18,1.72,3.35l0,0c0,0,0,0,0,0c3.2,6.99,4.98,15.75,5.96,26.61
		C265.07,206.65,265.07,206.65,265.08,206.64z"/>
	<path d="M180.44,246.5c-0.39-0.2-0.84-0.32-1.31-0.32h-50c-0.47,0-0.92,0.11-1.31,0.32c-0.23,0.12-0.44,0.27-0.63,0.44
		c-0.51,0.47-0.85,1.13-0.92,1.87c-0.07,0.77-0.1,1.57-0.1,2.37c0,3.12,0.51,6.12,1.46,8.93c2.19,6.47,6.68,11.89,12.5,15.27
		c4.12,2.39,8.9,3.76,14,3.76c4.65,0,9.03-1.14,12.89-3.16c6.35-3.31,11.28-9,13.61-15.87c0.95-2.81,1.46-5.81,1.46-8.93
		c0-0.8-0.03-1.6-0.1-2.37C181.9,247.79,181.29,246.94,180.44,246.5z M175.96,255.35c-0.32,1.66-0.82,3.26-1.48,4.77
		c-1.86,4.23-5.01,7.77-8.94,10.14c-3.34,2-7.24,3.16-11.41,3.16c-4.52,0-8.74-1.36-12.25-3.69c-3.54-2.35-6.37-5.68-8.1-9.6
		c-0.67-1.51-1.17-3.1-1.48-4.77c-0.34-1.77,1.01-3.42,2.82-3.42h38.03C174.95,251.93,176.3,253.57,175.96,255.35z"/>
	<path d="M231.38,216c-1.37,1.2-2.88,2.23-4.47,3.15c-3.03-2.09-6.7-3.32-10.67-3.32c-10.4,0-18.83,8.43-18.83,18.83
		s8.43,18.83,18.83,18.83c10.4,0,18.83-8.43,18.83-18.83c0-3.54-1-6.85-2.7-9.68c1.6-1.03,3.12-2.17,4.56-3.43
		c1.6-1.39,1.43-4.12,0-5.55C235.34,214.42,232.98,214.61,231.38,216z M209.84,236.14c-3.56,0-6.44-2.88-6.44-6.44
		c0-3.56,2.88-6.44,6.44-6.44c3.56,0,6.44,2.88,6.44,6.44C216.29,233.26,213.4,236.14,209.84,236.14z"/>
	<path d="M92.02,215.83c-3.96,0-7.63,1.23-10.67,3.32c-1.6-0.91-3.1-1.95-4.47-3.15c-1.6-1.39-3.98-1.57-5.55,0
		c-1.42,1.42-1.6,4.15,0,5.55c1.44,1.26,2.96,2.4,4.56,3.43c-1.7,2.83-2.7,6.13-2.7,9.68c0,10.4,8.43,18.83,18.83,18.83
		c10.4,0,18.83-8.43,18.83-18.83S102.42,215.83,92.02,215.83z M98.41,236.14c-3.56,0-6.44-2.88-6.44-6.44
		c0-3.56,2.88-6.44,6.44-6.44c3.56,0,6.44,2.88,6.44,6.44C104.85,233.26,101.97,236.14,98.41,236.14z"/>
	<path d="M321.01,184.55c8.82,1.82,17.44-3.85,19.26-12.67c1.82-8.82-3.85-17.44-12.67-19.26c-8.82-1.82-17.44,3.85-19.26,12.67
		C306.52,174.1,312.2,182.73,321.01,184.55z M315.86,168.35l12.71-8.36c1.74-1.15,4.08-0.66,5.22,1.08
		c1.15,1.74,0.66,4.08-1.08,5.22L320,174.66c-1.74,1.15-4.08,0.66-5.22-1.08C313.63,171.84,314.12,169.5,315.86,168.35z"/>
	<path d="M321.01,222.96c8.82,1.82,17.44-3.85,19.26-12.67c1.82-8.82-3.85-17.44-12.67-19.26c-8.82-1.82-17.44,3.85-19.26,12.67
		C306.52,212.51,312.2,221.14,321.01,222.96z M315.86,206.76l12.71-8.36c1.74-1.15,4.08-0.66,5.22,1.08
		c1.15,1.74,0.66,4.08-1.08,5.22L320,213.07c-1.74,1.15-4.08,0.66-5.22-1.08C313.63,210.25,314.12,207.91,315.86,206.76z"/>
	<path d="M326.37,235.42c-21.32,0-24.08,6.1-24.08,52.63c0,46.53,2.75,49.49,24.08,49.49s22.8-2.96,22.8-49.49
		C349.16,241.52,347.69,235.42,326.37,235.42z M337.99,326.61h-24.52c-2.28,0-4.12-1.84-4.12-4.12c0-2.28,1.84-4.12,4.12-4.12h24.52
		c2.28,0,4.12,1.84,4.12,4.12C342.11,324.77,340.26,326.61,337.99,326.61z M337.99,312.74h-24.52c-2.28,0-4.12-1.84-4.12-4.12
		s1.84-4.12,4.12-4.12h24.52c2.28,0,4.12,1.84,4.12,4.12S340.26,312.74,337.99,312.74z"/>
	<path d="M260.35,110.36c-6.07-13.05-16.31-23.76-29.02-30.41l18.83-52.06c5.52-0.2,10.63-3.68,12.63-9.19
		c2.62-7.24-1.13-15.24-8.37-17.86c-7.24-2.62-15.24,1.13-17.86,8.37c-2,5.51-0.29,11.46,3.82,15.14l-18.64,51.53
		c-6.49-2.16-13.43-3.35-20.65-3.35c-6.71,0-13.18,1.01-19.27,2.89l-18.48-51.06c4.12-3.69,5.82-9.63,3.83-15.14
		c-2.62-7.25-10.62-10.99-17.87-8.37c-7.24,2.62-10.99,10.62-8.37,17.86c1.99,5.51,7.11,8.99,12.63,9.19l18.59,51.38
		c-13.31,6.58-24.05,17.55-30.33,31.02l-7.49,0c-61.07,0.23-91.52,3.47-110.49,22.06C3.8,151.99,0,188.28,0,248.36
		c0,58.38,3.64,91.98,23.19,110.47c2.11,20.77,12.38,31.02,35.98,36.24c1.69,0.37,3.46,0.72,5.31,1.05l1.55,32.37
		c0.08,1.57,1.42,2.85,2.99,2.85h3.38c1.57,0,3.42-1.15,4.11-2.56l14.64-29.64c22.85,1.55,54.53,1.9,100.93,1.9l11.81,0
		c3.91,0,7.73,0,11.46,0c39.03,0,68.1-0.08,89.7-1.08l14.66,29.67c0.69,1.4,2.54,2.56,4.11,2.56h3.38c1.57,0,2.92-1.28,2.99-2.85
		l1.51-31.6c3.3-0.47,6.29-1,8.99-1.6c24.94-5.6,28.36-19.04,28.96-36.19c22.85-17.95,22.85-50.7,22.85-113.89v-0.24
		c0-8.27,0.05-15.9,0.1-23.28c0.32-48.83,0.49-75.73-15.77-92.11C360.18,113.67,330.38,110.75,260.35,110.36z M381.06,222.45
		c-0.05,7.4-0.1,15.05-0.1,23.36v0.24c0,34.08-0.01,58.72-3.49,76.31c-0.01,0.05-0.01,0.09-0.02,0.13
		c-5.5,36.02-34.99,37.9-35.33,37.92c-18.92,4.3-59.96,9.21-148.85,9.58c-87.13-0.01-134.06,4.1-158.94-16.61l-0.01-0.12l-1.83-1.57
		c-0.47-0.41-0.93-0.83-1.39-1.26c-0.2-0.2-0.4-0.4-0.6-0.6c0,0,0,0.01,0,0.01c-15.89-15.86-18.98-48.28-18.98-101.48
		c0-56.94,3.25-90.98,20.38-107.77c16.01-15.69,45.8-18.55,102.44-18.77l104.43,0.02c0.1,0,0.19,0,0.29,0
		c78.55,0,114.56,1.59,129.57,16.7C381.53,151.52,381.36,176.71,381.06,222.45z"/>
</g>
</svg>
